<?xml version="1.0" encoding="UTF-8"?>
<svg id="Camada_2" data-name="Camada 2" xmlns="http://www.w3.org/2000/svg" viewBox="0 0 122.89 44.4">
  <defs>
    <style>
      .cls-1 {
        fill: #010101;
      }

      .cls-1, .cls-2, .cls-3, .cls-4, .cls-5, .cls-6, .cls-7, .cls-8, .cls-9 {
        stroke-width: 0px;
      }

      .cls-2 {
        fill: #51609f;
      }

      .cls-3 {
        fill: #078e38;
      }

      .cls-4 {
        fill: #46a96d;
      }

      .cls-5 {
        fill: #8b1f74;
      }

      .cls-6 {
        fill: #a64d97;
      }

      .cls-7 {
        fill: #f3af37;
      }

      .cls-8 {
        fill: #253574;
      }

      .cls-9 {
        fill: #f49416;
      }
    </style>
  </defs>
  <g id="vetor">
    <g>
      <polygon class="cls-5" points="26.37 4.95 26.37 12.98 19.88 19.35 13.39 12.98 13.39 0 21.27 0 26.37 4.95"/>
      <polygon class="cls-3" points="26.37 26.78 26.37 39.76 18.48 39.76 13.39 34.81 13.39 26.78 19.88 20.41 26.37 26.78"/>
      <polygon class="cls-9" points="39.76 13.39 39.76 21.28 34.81 26.37 26.78 26.37 20.41 19.88 26.78 13.39 39.76 13.39"/>
      <polygon class="cls-8" points="19.35 19.88 12.98 26.37 0 26.37 0 18.48 4.95 13.39 12.98 13.39 19.35 19.88"/>
      <g>
        <path class="cls-1" d="M28.26,31.19c0-1.03-.04-1.81-.09-2.69h1.04l.08,1.99h.05c.72-1.3,1.8-2.25,3.65-2.25,1.57,0,2.75,1.04,3.23,2.46h.05c.32-.67.73-1.17,1.15-1.52.73-.6,1.49-.94,2.69-.94,1.1,0,3.67.62,3.67,4.88v6.63h-1.11v-6.52c0-2.53-.98-4.03-2.94-4.03-1.4,0-2.51,1.04-2.95,2.23-.11.32-.19.7-.19,1.11v7.21h-1.11v-7.03c0-2.03-.97-3.52-2.79-3.52-1.51,0-2.7,1.23-3.12,2.54-.1.32-.17.7-.17,1.08v6.93h-1.11v-8.56Z"/>
        <path class="cls-1" d="M47.64,34.02c0,3.59,1.96,5.02,4.28,5.02,1.64,0,2.49-.33,3.13-.64l.29.88c-.43.23-1.59.72-3.55.72-3.24,0-5.25-2.36-5.25-5.65,0-3.76,2.15-6.11,5.06-6.11,3.69,0,4.38,3.46,4.38,5.09,0,.32,0,.49-.04.69h-8.31ZM54.81,33.13c.03-1.57-.63-3.96-3.36-3.96-2.47,0-3.55,2.23-3.75,3.96h7.12Z"/>
        <path class="cls-1" d="M67.81,23.11v14.03c0,.83.04,1.82.09,2.61h-1.01l-.08-2.13h-.06c-.57,1.25-1.92,2.39-4,2.39-2.77,0-4.85-2.32-4.85-5.68-.02-3.75,2.29-6.09,5.07-6.09,1.94,0,3.17,1.01,3.67,1.98h.05v-7.12h1.11ZM66.69,32.96c0-.31-.04-.72-.11-1.03-.39-1.51-1.71-2.76-3.55-2.76-2.44,0-4,2.13-4,5.05,0,2.53,1.27,4.87,3.95,4.87,1.61,0,3.12-1.07,3.6-2.95.08-.29.12-.59.12-.93v-2.25Z"/>
        <path class="cls-1" d="M70.7,38.97c0-.62.4-1.07.96-1.07s.94.45.94,1.07c0,.56-.37,1.04-.96,1.04s-.96-.48-.94-1.04Z"/>
        <path class="cls-1" d="M75.41,32.1c0-1.41-.04-2.53-.09-3.59h1.07l.08,2.13h.05c.81-1.49,2.2-2.39,4.15-2.39,2.89,0,4.84,2.39,4.84,5.7,0,4.03-2.4,6.07-5.12,6.07-1.61,0-3.04-.73-3.82-2.08h-.05v6.47h-1.11v-12.3ZM76.52,35.33c0,.3.04.61.1.9.46,1.74,1.97,2.87,3.7,2.87,2.59,0,4.06-2.1,4.06-5.1,0-2.53-1.41-4.82-3.96-4.82-1.65,0-3.23,1.14-3.73,3-.08.3-.16.66-.16.96v2.19Z"/>
        <path class="cls-1" d="M88.36,23.11h1.11v16.65h-1.11v-16.65Z"/>
        <path class="cls-1" d="M99.47,39.76l-.16-1.61h-.05c-.55.87-1.8,1.87-3.59,1.87-2.26,0-3.31-1.59-3.31-3.1,0-2.6,2.29-4.16,6.86-4.12v-.3c0-1.11-.22-3.34-2.88-3.32-.98,0-2.01.26-2.83.84l-.35-.81c1.03-.7,2.28-.97,3.3-.97,3.25,0,3.87,2.44,3.87,4.45v4.39c0,.89.04,1.81.16,2.67h-1.03ZM99.21,33.74c-2.45-.07-5.69.3-5.69,3,0,1.62,1.07,2.34,2.24,2.34,1.88,0,2.94-1.16,3.33-2.26.08-.24.12-.48.12-.67v-2.42Z"/>
        <path class="cls-1" d="M111.73,39.27c-.48.25-1.66.73-3.29.73-3.24,0-5.4-2.36-5.4-5.74,0-3.58,2.44-6.01,5.8-6.01,1.38,0,2.51.39,2.95.7l-.4.93c-.55-.32-1.41-.66-2.67-.66-3.02,0-4.57,2.31-4.57,4.96,0,2.95,1.86,4.87,4.45,4.87,1.34,0,2.21-.38,2.81-.65l.3.88Z"/>
        <path class="cls-1" d="M114.55,34.02c0,3.59,1.96,5.02,4.28,5.02,1.64,0,2.49-.33,3.13-.64l.29.88c-.43.23-1.59.72-3.55.72-3.24,0-5.25-2.36-5.25-5.65,0-3.76,2.15-6.11,5.06-6.11,3.69,0,4.38,3.46,4.38,5.09,0,.32,0,.49-.04.69h-8.31ZM121.73,33.13c.03-1.57-.63-3.96-3.36-3.96-2.47,0-3.55,2.23-3.75,3.96h7.12Z"/>
      </g>
      <g>
        <polygon class="cls-7" points="39.76 21.28 34.81 26.37 34.81 21.28 39.76 21.28"/>
        <polygon class="cls-6" points="26.37 4.95 21.27 4.95 21.27 0 26.37 4.95"/>
        <polygon class="cls-4" points="18.48 34.81 18.48 39.76 13.39 34.81 18.48 34.81"/>
        <polygon class="cls-2" points="4.95 13.39 4.95 18.48 0 18.48 4.95 13.39"/>
      </g>
    </g>
  </g>
</svg>