<?xml version="1.0" encoding="UTF-8"?>
<svg id="Camada_2" data-name="Camada 2" xmlns="http://www.w3.org/2000/svg" viewBox="0 0 115.87 36.83">
  <defs>
    <style>
      .cls-1 {
        fill: #39abb7;
      }

      .cls-1, .cls-2, .cls-3, .cls-4, .cls-5 {
        stroke-width: 0px;
      }

      .cls-2 {
        fill: #99d3da;
      }

      .cls-3 {
        fill: #1394a4;
      }

      .cls-4 {
        fill: #6dc1c9;
      }

      .cls-5 {
        fill: #757575;
      }
    </style>
  </defs>
  <g id="vetor">
    <g>
      <g>
        <path class="cls-1" d="M15.1,21.93c1.94-.34,3.23-2.19,2.89-4.13-.34-1.94-2.19-3.23-4.13-2.89-1.93.34-3.23,2.19-2.89,4.13.34,1.94,2.2,3.23,4.13,2.89M14.07,16.08c1.29-.23,2.53.64,2.76,1.93.23,1.29-.64,2.53-1.93,2.76-1.29.23-2.52-.64-2.75-1.93s.63-2.53,1.93-2.75"/>
        <path class="cls-3" d="M14.65,19.4c.54-.1.9-.61.81-1.15-.1-.54-.61-.9-1.15-.8-.54.09-.9.61-.8,1.15.09.54.61.9,1.15.8"/>
        <path class="cls-4" d="M11.57,13.93c.27-.18.35-.55.17-.82-.18-.27-.54-.36-.82-.17-2.2,1.43-3.34,4.03-2.88,6.62.18,1.05.62,2.04,1.28,2.88.14.18.36.26.57.22.1-.02.18-.05.26-.12.26-.2.3-.58.1-.83-.54-.69-.88-1.48-1.04-2.35-.37-2.12.55-4.25,2.36-5.42"/>
        <path class="cls-4" d="M18.33,23.62c.1-.02.19-.06.27-.13,1.84-1.49,2.73-3.87,2.32-6.2-.25-1.4-.93-2.65-1.96-3.62-.24-.22-.61-.21-.84.03-.22.24-.21.61.03.84.85.79,1.4,1.82,1.6,2.96.34,1.91-.39,3.86-1.89,5.08-.26.21-.29.58-.09.84.14.17.36.25.56.21"/>
        <path class="cls-2" d="M5.96,21.24s.03,0,.04,0c.32-.09.51-.41.43-.73-.05-.21-.1-.42-.14-.64-.55-3.12.69-6.23,3.23-8.12.26-.19.32-.57.12-.83-.2-.26-.57-.32-.84-.12-2.9,2.16-4.32,5.72-3.69,9.28.04.25.1.49.16.73.08.3.37.49.68.44"/>
        <path class="cls-2" d="M19.98,26.1c.09-.02.18-.05.25-.11,2.85-2.17,4.23-5.7,3.61-9.22-.11-.63-.29-1.26-.52-1.85-.13-.3-.47-.45-.77-.33-.31.12-.46.47-.34.77.21.52.36,1.07.46,1.63.54,3.08-.67,6.17-3.16,8.07-.26.2-.31.57-.11.84.14.18.37.26.58.22"/>
        <path class="cls-4" d="M12.32,6.14h0c-5.81,1.03-10.14,6.04-10.31,11.93,0,.33.25.6.58.61.04,0,.08,0,.12,0,.27-.05.48-.28.49-.57.15-5.33,4.07-9.87,9.32-10.79h0c2.61-.46,5.32.02,7.62,1.35.29.17.65.07.81-.22.17-.28.07-.64-.22-.81-2.54-1.47-5.52-2-8.42-1.49"/>
        <path class="cls-4" d="M16.65,30.71c6.22-1.1,10.64-6.67,10.29-12.97-.02-.33-.3-.58-.63-.56-.32,0-.58.3-.56.62.31,5.7-3.69,10.74-9.31,11.73-3.17.56-6.43-.26-8.96-2.26-.26-.2-.64-.16-.83.1-.2.26-.16.63.1.83,2.79,2.2,6.4,3.12,9.9,2.5"/>
        <path class="cls-1" d="M.7,13.72c.2-.04.37-.17.45-.37,1.78-4.67,5.94-8.1,10.85-8.97h0c3.53-.62,7.13.1,10.15,2.03.27.18.64.1.82-.18.18-.28.1-.64-.18-.82-3.27-2.09-7.18-2.87-11-2.2h0C6.47,4.15,1.97,7.87.04,12.93c-.12.31.04.65.34.77.1.04.21.05.31.03"/>
        <path class="cls-1" d="M28.62,23c-.3-.12-.65.04-.76.35-1.75,4.75-5.93,8.23-10.91,9.11-3.97.7-8.07-.32-11.26-2.81-.26-.2-.63-.16-.83.11-.2.26-.16.63.1.83,3.45,2.69,7.89,3.8,12.19,3.04,5.39-.95,9.91-4.73,11.82-9.87.11-.31-.05-.65-.36-.76"/>
        <path class="cls-3" d="M3.3,5.31c2.33-1.99,5.16-3.32,8.19-3.86h0c4.43-.78,8.91.17,12.63,2.69.14.09.29.12.44.09.15-.03.3-.11.39-.25.18-.27.11-.64-.16-.82C20.81.47,16.02-.55,11.29.28h0c-3.24.57-6.27,2-8.76,4.13-.26.21-.28.59-.07.84.21.25.59.28.84.07"/>
        <path class="cls-3" d="M25.89,31.34c-2.37,2.1-5.28,3.5-8.41,4.05-4.78.84-9.71-.38-13.55-3.35-.26-.2-.63-.16-.84.11-.2.26-.15.63.1.83,4.1,3.18,9.38,4.48,14.49,3.58,3.35-.59,6.46-2.09,9-4.33.24-.22.27-.59.05-.84-.22-.24-.59-.27-.84-.05"/>
      </g>
      <g>
        <g>
          <path class="cls-5" d="M37.92,20.81c.75.83,1.56,1.29,2.44,1.29,1.14,0,2.15-.83,2.15-1.93,0-.68-.4-1.32-.97-1.62-2.68-1.49-4.04-2.13-4.04-4.17,0-1.84,1.43-3.09,3.2-3.09,1.27,0,2.24.61,3.23,1.58l-.97.99c-.7-.68-1.4-1.12-2.35-1.12s-1.76.68-1.76,1.56c0,.59.37,1.25.9,1.56,2.68,1.56,4.17,2.15,4.17,4.26,0,1.82-1.4,3.45-3.51,3.45-1.29,0-2.61-.59-3.45-1.67l.94-1.08Z"/>
          <path class="cls-5" d="M46.62,7.1h1.49v9.19l5.38-4.7h2.22l-6.39,5.55,6.76,6.1h-2.13l-5.84-5.24v5.24h-1.49V7.1Z"/>
          <path class="cls-5" d="M56.36,11.59h1.58l4.02,8.98,3.88-8.98h1.6l-6.96,15.91h-1.58l2.24-5.13-4.78-10.77Z"/>
          <path class="cls-5" d="M78.79,23.25h-1.49v-5.97c0-.9-.09-1.65-.11-2.17-.07-1.27-1.1-2.37-2.63-2.37-1.03,0-2.06.5-2.72,1.36-.83,1.08-.99,2.46-.99,4.21v4.94h-1.49v-11.65h1.49v2c1.03-1.49,2.33-2.3,3.99-2.3,1.78,0,3.05.92,3.69,2.81,1.03-1.87,2.57-2.81,4.28-2.81,2.41,0,3.97,1.73,3.97,5.05v6.91h-1.49v-6.36c0-.86-.11-1.54-.13-1.98-.07-1.03-1.05-2.17-2.63-2.17-1.45,0-2.72.88-3.31,2.37-.37.94-.42,1.98-.42,3.05v5.09Z"/>
          <path class="cls-5" d="M90.94,17.54c.07,2.68,1.89,4.63,4.39,4.63s3.6-1.38,4.45-2.79l1.25.66c-1.19,2.33-3.01,3.49-5.55,3.49-3.86,0-6.08-2.96-6.08-6.08s2.35-6.17,5.99-6.17c3.31,0,5.99,2.39,6.03,6.25h-10.49ZM99.79,16.22c-.61-2.41-2.35-3.49-4.37-3.49s-3.64,1.12-4.32,3.49h8.69Z"/>
          <path class="cls-5" d="M114.38,21.25c-1.27,1.54-2.87,2.28-4.7,2.28-3.4,0-5.97-2.83-5.97-6.14s2.63-6.1,6.01-6.1c1.89,0,3.49.81,4.65,2.44v-6.63h1.49v16.15h-1.49v-2ZM105.25,17.43c0,2.52,1.98,4.74,4.59,4.74,2.39,0,4.63-1.8,4.63-4.7,0-2.7-2-4.74-4.61-4.74s-4.61,2.19-4.61,4.7Z"/>
        </g>
        <g>
          <path class="cls-5" d="M69.69,27.53h.36v1.61c.29-.39.64-.58,1.07-.58.62,0,1.05.43,1.05,1.29v1.63h-.36v-1.55c0-.67-.2-1.04-.76-1.04-.31,0-.56.13-.75.39-.21.27-.25.55-.25,1.01v1.19h-.36v-3.94Z"/>
          <path class="cls-5" d="M75.12,30.08c.02.65.46,1.13,1.07,1.13s.88-.34,1.09-.68l.31.16c-.29.57-.73.85-1.36.85-.94,0-1.48-.72-1.48-1.48s.57-1.51,1.46-1.51c.81,0,1.46.58,1.47,1.53h-2.56ZM77.28,29.76c-.15-.59-.57-.85-1.07-.85s-.89.27-1.06.85h2.12Z"/>
          <path class="cls-5" d="M82.76,28.63h.36v2.84h-.36v-.49c-.31.38-.7.56-1.15.56-.83,0-1.46-.69-1.46-1.5s.64-1.49,1.47-1.49c.46,0,.85.2,1.14.59v-.52ZM80.53,30.05c0,.62.48,1.16,1.12,1.16.58,0,1.14-.44,1.14-1.15,0-.66-.49-1.16-1.13-1.16s-1.13.54-1.13,1.15Z"/>
          <path class="cls-5" d="M85.82,27.53h.36v3.94h-.36v-3.94Z"/>
          <path class="cls-5" d="M89.2,27.57h.36v1.06h.58v.32h-.58v2.52h-.36v-2.52h-.5v-.32h.5v-1.06Z"/>
          <path class="cls-5" d="M92.62,27.53h.36v1.61c.29-.39.64-.58,1.07-.58.62,0,1.05.43,1.05,1.29v1.63h-.36v-1.55c0-.67-.2-1.04-.76-1.04-.31,0-.56.13-.75.39-.21.27-.25.55-.25,1.01v1.19h-.36v-3.94Z"/>
          <path class="cls-5" d="M98.14,27.57h.36v1.06h.58v.32h-.58v2.52h-.36v-2.52h-.5v-.32h.5v-1.06Z"/>
          <path class="cls-5" d="M101.8,30.08c.02.65.46,1.13,1.07,1.13s.88-.34,1.09-.68l.31.16c-.29.57-.73.85-1.36.85-.94,0-1.48-.72-1.48-1.48s.57-1.51,1.46-1.51c.81,0,1.46.58,1.47,1.53h-2.56ZM103.96,29.76c-.15-.59-.57-.85-1.07-.85s-.89.27-1.06.85h2.12Z"/>
          <path class="cls-5" d="M109.73,30.9c-.28.42-.76.64-1.33.64-.94,0-1.56-.68-1.56-1.47,0-.84.65-1.52,1.59-1.52.55,0,1.04.22,1.31.66l-.29.18c-.25-.33-.6-.49-1.03-.49-.72,0-1.2.53-1.2,1.14s.47,1.16,1.21,1.16c.41,0,.76-.17,1.02-.5l.29.19Z"/>
          <path class="cls-5" d="M112.36,27.53h.36v1.61c.29-.39.64-.58,1.07-.58.62,0,1.05.43,1.05,1.29v1.63h-.36v-1.55c0-.67-.2-1.04-.76-1.04-.31,0-.56.13-.75.39-.21.27-.25.55-.25,1.01v1.19h-.36v-3.94Z"/>
        </g>
      </g>
    </g>
  </g>
</svg>