<?xml version="1.0" encoding="UTF-8"?>
<svg id="Camada_2" data-name="Camada 2" xmlns="http://www.w3.org/2000/svg" xmlns:xlink="http://www.w3.org/1999/xlink" viewBox="0 0 178.25 178.25">
  <defs>
    <style>
      .cls-1 {
        fill: url(#Gradiente_sem_nome_5);
      }

      .cls-2 {
        fill: url(#Gradiente_sem_nome_6-3);
      }

      .cls-3 {
        fill: url(#Gradiente_sem_nome_6-2);
      }

      .cls-4 {
        fill: url(#Gradiente_sem_nome_7);
      }

      .cls-5 {
        fill: url(#Gradiente_sem_nome_6);
      }

      .cls-6 {
        fill: url(#Gradiente_sem_nome_3);
      }

      .cls-7 {
        fill: url(#Gradiente_sem_nome_5-2);
      }

      .cls-8 {
        fill: #54c1ed;
      }
    </style>
    <linearGradient id="Gradiente_sem_nome_6" data-name="Gradiente sem nome 6" x1="51.03" y1="-1289.43" x2="4.34" y2="-1364.15" gradientTransform="translate(0 -1227.61) scale(1 -1)" gradientUnits="userSpaceOnUse">
      <stop offset="0" stop-color="#08394d"/>
      <stop offset=".2" stop-color="#19537a"/>
      <stop offset=".47" stop-color="#2e72b1"/>
      <stop offset=".7" stop-color="#3d89d9"/>
      <stop offset=".89" stop-color="#4797f1"/>
      <stop offset="1" stop-color="#4a9cfa"/>
    </linearGradient>
    <linearGradient id="Gradiente_sem_nome_5" data-name="Gradiente sem nome 5" x1="0" y1="-1312.36" x2="63.96" y2="-1312.36" gradientTransform="translate(0 -1227.61) scale(1 -1)" gradientUnits="userSpaceOnUse">
      <stop offset=".04" stop-color="#52a0ef"/>
      <stop offset="1" stop-color="#52a0ef"/>
    </linearGradient>
    <linearGradient id="Gradiente_sem_nome_3" data-name="Gradiente sem nome 3" x1="-1363.44" y1="650.32" x2="-1410.13" y2="575.6" gradientTransform="translate(-1236.23 -533.9) rotate(-180) scale(1 -1)" gradientUnits="userSpaceOnUse">
      <stop offset="0" stop-color="#08394d"/>
      <stop offset=".15" stop-color="#17556d"/>
      <stop offset=".44" stop-color="#3183a4"/>
      <stop offset=".69" stop-color="#44a5cc"/>
      <stop offset=".88" stop-color="#50b9e4"/>
      <stop offset="1" stop-color="#54c1ed"/>
    </linearGradient>
    <linearGradient id="Gradiente_sem_nome_6-2" data-name="Gradiente sem nome 6" x1="-1555.55" y1="-956.27" x2="-1602.24" y2="-1030.99" gradientTransform="translate(-894.44 -1428.34) rotate(-90) scale(1 -1)" xlink:href="#Gradiente_sem_nome_6"/>
    <linearGradient id="Gradiente_sem_nome_5-2" data-name="Gradiente sem nome 5" x1="38.53" y1="-1373.87" x2="130.99" y2="-1373.87" xlink:href="#Gradiente_sem_nome_5"/>
    <linearGradient id="Gradiente_sem_nome_6-3" data-name="Gradiente sem nome 6" x1="243.14" y1="317.16" x2="196.45" y2="242.44" gradientTransform="translate(-200.74 -192.11) rotate(90) scale(1 -1)" xlink:href="#Gradiente_sem_nome_6"/>
    <linearGradient id="Gradiente_sem_nome_7" data-name="Gradiente sem nome 7" x1="47.26" y1="-1259.59" x2="139.73" y2="-1259.59" gradientTransform="translate(0 -1227.61) scale(1 -1)" gradientUnits="userSpaceOnUse">
      <stop offset=".04" stop-color="#52a0ef"/>
      <stop offset="1" stop-color="#4a9cfa"/>
    </linearGradient>
  </defs>
  <g id="Camada_1-2" data-name="Camada 1">
    <g>
      <path class="cls-5" d="M59.97,98.73c5.28-5.28,5.33-13.89.1-19.12-5.23-5.23-30-30-32.35-32.35,0,0,9.93,13.95,7.4,24.13-2.53,10.17-31.18,45.32-31.18,45.32-5.15,6.34-5.33,13.89-.1,19.12s13.84,5.19,19.12-.1l37.01-37Z"/>
      <path class="cls-1" d="M59.97,79.51c5.28,5.28,5.33,13.89.1,19.12-5.23,5.23-30,30-32.35,32.35,0,0,9.93-13.95,7.4-24.13-2.53-10.17-31.18-45.32-31.18-45.32-5.15-6.34-5.33-13.89-.09-19.12,5.23-5.23,13.84-5.19,19.12.1l37,37Z"/>
      <path class="cls-6" d="M118.27,79.51c-5.28,5.28-5.33,13.89-.1,19.12s30,30,32.35,32.35c0,0-9.93-13.95-7.4-24.13,2.53-10.17,31.18-45.32,31.18-45.32,5.15-6.34,5.33-13.89.1-19.12s-13.84-5.19-19.12.1l-37.01,37Z"/>
      <path class="cls-8" d="M118.27,98.73c-5.28-5.28-5.33-13.89-.1-19.12s30-30,32.35-32.35c0,0-9.93,13.95-7.4,24.13,2.53,10.17,31.18,45.32,31.18,45.32,5.15,6.34,5.33,13.89.1,19.12s-13.84,5.19-19.12-.1l-37.01-37Z"/>
      <path class="cls-3" d="M98.73,118.27c-5.28-5.28-13.89-5.33-19.12-.1s-30,30-32.35,32.35c0,0,13.95-9.93,24.13-7.4,10.17,2.53,45.32,31.18,45.32,31.18,6.34,5.15,13.89,5.33,19.12.1s5.19-13.84-.1-19.12l-37-37.01Z"/>
      <path class="cls-7" d="M79.52,118.27c5.28-5.28,13.89-5.33,19.12-.1s30,30,32.35,32.35c0,0-13.95-9.93-24.13-7.4-10.17,2.53-45.32,31.18-45.32,31.18-6.34,5.15-13.89,5.33-19.12.1-5.23-5.23-5.19-13.84.1-19.12l37-37.01Z"/>
      <path class="cls-2" d="M79.52,59.97c5.28,5.28,13.89,5.33,19.12.1s30-30,32.35-32.35c0,0-13.95,9.93-24.13,7.4-10.18-2.53-45.33-31.18-45.33-31.18-6.34-5.15-13.89-5.33-19.12-.1s-5.19,13.84.1,19.12l37.01,37.01Z"/>
      <path class="cls-4" d="M98.73,59.97c-5.28,5.28-13.89,5.33-19.12.1L47.26,27.72s13.95,9.93,24.13,7.4c10.17-2.53,45.32-31.18,45.32-31.18,6.34-5.15,13.89-5.33,19.12-.1,5.23,5.23,5.19,13.84-.1,19.12l-37,37.01Z"/>
    </g>
  </g>
</svg>