<?xml version="1.0" encoding="UTF-8"?>
<svg id="Camada_2" data-name="Camada 2" xmlns="http://www.w3.org/2000/svg" viewBox="0 0 184.45 188.29">
  <defs>
    <style>
      .cls-1 {
        fill: #fff;
      }
    </style>
  </defs>
  <g id="Camada_1-2" data-name="Camada 1">
    <g>
      <g>
        <g>
          <path class="cls-1" d="M50.99,30.29l.25.25-.25-.25Z"/>
          <path class="cls-1" d="M49.85,29.15s.09.09.14.14l-.14-.14Z"/>
          <path class="cls-1" d="M49.2,28.49l-4.89-4.89c-5.43-5.43-5.48-14.27-.1-19.65,5.38-5.37,13.13-5.19,19.65.1,0,0,14.92,12.16,28.36,21.54-7.47,5.22-14.48,9.58-18.22,10.51-10.46,2.61-24.79-7.6-24.8-7.61Z"/>
        </g>
        <path class="cls-1" d="M140.13,26.55c5.43-5.43,5.48-14.27.1-19.65-5.38-5.37-13.13-5.19-19.65.1,0,0-36.12,29.44-46.58,32.05-10.46,2.6-24.8-7.61-24.8-7.61,2.42,2.42,27.87,27.87,33.25,33.25,5.38,5.37,14.22,5.33,19.65-.1l38.03-38.04Z"/>
      </g>
      <g>
        <g>
          <path class="cls-1" d="M133.45,158l-.25-.25.25.25Z"/>
          <path class="cls-1" d="M134.59,159.14s-.09-.09-.14-.14l.14.14Z"/>
          <path class="cls-1" d="M135.24,159.8l4.89,4.89c5.43,5.43,5.48,14.27.1,19.65-5.38,5.37-13.13,5.19-19.65-.1,0,0-14.92-12.16-28.36-21.54,7.47-5.22,14.48-9.58,18.22-10.51,10.46-2.61,24.79,7.6,24.8,7.61Z"/>
        </g>
        <path class="cls-1" d="M44.31,161.74c-5.43,5.43-5.48,14.27-.1,19.65,5.38,5.37,13.13,5.19,19.65-.1,0,0,36.12-29.44,46.58-32.05,10.46-2.6,24.8,7.61,24.8,7.61-2.42-2.42-27.87-27.87-33.25-33.25-5.38-5.37-14.22-5.33-19.65.1l-38.03,38.04Z"/>
      </g>
      <g>
        <g>
          <path class="cls-1" d="M30.29,135.37l.25-.25-.25.25Z"/>
          <path class="cls-1" d="M29.15,136.51s.09-.09.14-.14l-.14.14Z"/>
          <path class="cls-1" d="M28.49,137.16l-4.89,4.89c-5.43,5.43-14.27,5.48-19.65.1-5.37-5.38-5.19-13.13.1-19.65,0,0,12.16-14.92,21.54-28.36,5.22,7.47,9.58,14.48,10.51,18.22,2.61,10.46-7.6,24.79-7.61,24.8Z"/>
        </g>
        <path class="cls-1" d="M26.55,46.23c-5.43-5.43-14.27-5.48-19.65-.1-5.37,5.38-5.19,13.13.1,19.65,0,0,29.44,36.12,32.05,46.58,2.6,10.46-7.61,24.8-7.61,24.8,2.42-2.42,27.87-27.87,33.25-33.25,5.37-5.38,5.33-14.22-.1-19.65L26.55,46.23Z"/>
      </g>
      <g>
        <g>
          <path class="cls-1" d="M154.16,52.91l-.25.25.25-.25Z"/>
          <path class="cls-1" d="M155.3,51.77s-.09.09-.14.14l.14-.14Z"/>
          <path class="cls-1" d="M155.96,51.12l4.89-4.89c5.43-5.43,14.27-5.48,19.65-.1,5.37,5.38,5.19,13.13-.1,19.65,0,0-12.16,14.92-21.54,28.36-5.22-7.47-9.58-14.48-10.51-18.22-2.61-10.46,7.6-24.79,7.61-24.8Z"/>
        </g>
        <path class="cls-1" d="M157.9,142.05c5.43,5.43,14.27,5.48,19.65.1,5.37-5.38,5.19-13.13-.1-19.65,0,0-29.44-36.12-32.05-46.58-2.6-10.46,7.61-24.8,7.61-24.8-2.42,2.42-27.87,27.87-33.25,33.25-5.37,5.38-5.33,14.22.1,19.65l38.04,38.03Z"/>
      </g>
    </g>
  </g>
</svg>