<?xml version="1.0" encoding="UTF-8"?>
<svg id="Camada_2" data-name="Camada 2" xmlns="http://www.w3.org/2000/svg" viewBox="0 0 113.51 29.98">
  <defs>
    <style>
      .cls-1 {
        fill: #3d4a99;
      }

      .cls-1, .cls-2, .cls-3, .cls-4 {
        stroke-width: 0px;
      }

      .cls-2 {
        fill: #26346a;
      }

      .cls-3 {
        fill: #4654a0;
      }

      .cls-4 {
        fill: #2396d3;
      }
    </style>
  </defs>
  <g id="vetor">
    <g>
      <polygon class="cls-3" points="19.71 9.5 12.99 19.66 6.73 10.16 13.45 0 19.71 9.5"/>
      <polygon class="cls-4" points="13.45 0 6.73 10.16 0 0 13.45 0"/>
      <polygon class="cls-2" points="12.99 19.66 6.16 29.98 .01 20.33 6.73 10.16 12.99 19.66"/>
      <polygon class="cls-4" points="19.78 29.98 6.16 29.98 12.99 19.66 19.78 29.98"/>
      <g>
        <path class="cls-2" d="M111.64,14.91v-1.46h.62c.16,0,.27.01.34.04.07.03.13.07.17.14.04.07.06.14.06.23,0,.11-.03.2-.1.27-.06.07-.16.12-.29.14.06.04.12.08.16.12.04.04.1.12.17.24l.18.29h-.35l-.21-.32c-.08-.11-.13-.19-.16-.21-.03-.03-.06-.05-.09-.06-.03-.01-.08-.02-.15-.02h-.06v.61h-.29ZM111.93,14.07h.22c.14,0,.23,0,.26-.02.04-.01.06-.03.08-.06.02-.03.03-.07.03-.11,0-.05-.01-.09-.04-.12-.03-.03-.06-.05-.11-.06-.02,0-.1,0-.22,0h-.23v.37Z"/>
        <path class="cls-2" d="M113.51,14.24c0,.71-.58,1.29-1.29,1.29s-1.29-.58-1.29-1.29.58-1.29,1.29-1.29,1.29.58,1.29,1.29ZM112.22,15.33c.6,0,1.09-.49,1.09-1.09s-.49-1.09-1.09-1.09-1.09.49-1.09,1.09.49,1.09,1.09,1.09h0Z"/>
      </g>
      <g>
        <path class="cls-1" d="M34.09,13.33l-5.05,9.02h5.1v2.81h-9.83v-.48l5.03-9.02h-4.57v-2.81h9.32v.47Z"/>
        <path class="cls-1" d="M43.9,15.67h-4.56v1.74h4.19v2.8h-4.19v2.16h4.71v2.8h-7.85v-12.31h7.69v2.81Z"/>
        <path class="cls-1" d="M57.17,24.71v.46h-3.52l-2.11-3.62h-1.64v3.62h-3.15v-12.31h5.4c4.84.02,5.72,5.84,2.6,7.95l2.41,3.91ZM52.15,15.67c-.74-.02-1.51,0-2.25,0v3.04h2.25c1.71,0,1.79-3.03,0-3.04Z"/>
        <path class="cls-1" d="M58.31,19.03c0-8.51,12.63-8.51,12.63,0s-12.63,8.53-12.63,0ZM67.72,19.03c0-4.43-6.17-4.43-6.17,0s6.17,4.47,6.17,0Z"/>
        <path class="cls-2" d="M77.96,25.17h-4.64v-12.31h4.64c8.02.04,8.02,12.28,0,12.31ZM76.46,22.3h1.5c3.92,0,3.92-6.58,0-6.58h-1.5v6.58Z"/>
        <path class="cls-2" d="M85.61,19.03c0-8.51,12.63-8.51,12.63,0s-12.63,8.53-12.63,0ZM95.02,19.03c0-4.43-6.17-4.43-6.17,0s6.17,4.47,6.17,0Z"/>
        <path class="cls-2" d="M104.5,21.3l-2.25,3.87h-3.4v-.48l3.98-6.05-3.55-5.31v-.47h3.27l1.95,3.2h.09l1.97-3.2h3.25v.47l-3.55,5.31,3.99,6.05v.48h-3.4l-2.25-3.87h-.11Z"/>
      </g>
    </g>
  </g>
</svg>