<?xml version="1.0" encoding="UTF-8"?>
<svg id="Camada_2" data-name="Camada 2" xmlns="http://www.w3.org/2000/svg" xmlns:xlink="http://www.w3.org/1999/xlink" viewBox="0 0 90.27 68.78">
  <defs>
    <style>
      .cls-1 {
        clip-path: url(#clippath);
      }

      .cls-2 {
        fill: none;
      }

      .cls-2, .cls-3, .cls-4, .cls-5, .cls-6, .cls-7, .cls-8, .cls-9, .cls-10, .cls-11, .cls-12, .cls-13, .cls-14, .cls-15, .cls-16, .cls-17, .cls-18, .cls-19, .cls-20, .cls-21, .cls-22, .cls-23 {
        stroke-width: 0px;
      }

      .cls-3 {
        fill: url(#Gradiente_sem_nome_21-14);
      }

      .cls-4 {
        fill: url(#Gradiente_sem_nome_21-19);
      }

      .cls-5 {
        fill: url(#Gradiente_sem_nome_21-17);
      }

      .cls-6 {
        fill: url(#Gradiente_sem_nome_21-18);
      }

      .cls-7 {
        fill: url(#Gradiente_sem_nome_21-16);
      }

      .cls-8 {
        fill: url(#Gradiente_sem_nome_21-13);
      }

      .cls-9 {
        fill: url(#Gradiente_sem_nome_21-10);
      }

      .cls-10 {
        fill: url(#Gradiente_sem_nome_21-15);
      }

      .cls-11 {
        fill: url(#Gradiente_sem_nome_21-11);
      }

      .cls-12 {
        fill: url(#Gradiente_sem_nome_21-12);
      }

      .cls-13 {
        fill: url(#Gradiente_sem_nome_21-20);
      }

      .cls-14 {
        fill: url(#Gradiente_sem_nome_8);
      }

      .cls-24 {
        clip-path: url(#clippath-1);
      }

      .cls-25 {
        clip-path: url(#clippath-4);
      }

      .cls-26 {
        clip-path: url(#clippath-3);
      }

      .cls-27 {
        clip-path: url(#clippath-2);
      }

      .cls-28 {
        clip-path: url(#clippath-7);
      }

      .cls-29 {
        clip-path: url(#clippath-8);
      }

      .cls-30 {
        clip-path: url(#clippath-6);
      }

      .cls-31 {
        clip-path: url(#clippath-5);
      }

      .cls-32 {
        clip-path: url(#clippath-9);
      }

      .cls-33 {
        clip-path: url(#clippath-20);
      }

      .cls-34 {
        clip-path: url(#clippath-21);
      }

      .cls-35 {
        clip-path: url(#clippath-14);
      }

      .cls-36 {
        clip-path: url(#clippath-13);
      }

      .cls-37 {
        clip-path: url(#clippath-12);
      }

      .cls-38 {
        clip-path: url(#clippath-10);
      }

      .cls-39 {
        clip-path: url(#clippath-15);
      }

      .cls-40 {
        clip-path: url(#clippath-17);
      }

      .cls-41 {
        clip-path: url(#clippath-16);
      }

      .cls-42 {
        clip-path: url(#clippath-19);
      }

      .cls-43 {
        clip-path: url(#clippath-11);
      }

      .cls-44 {
        clip-path: url(#clippath-18);
      }

      .cls-15 {
        fill: url(#Gradiente_sem_nome_21-3);
      }

      .cls-16 {
        fill: url(#Gradiente_sem_nome_21-2);
      }

      .cls-17 {
        fill: url(#Gradiente_sem_nome_21-9);
      }

      .cls-18 {
        fill: url(#Gradiente_sem_nome_21-8);
      }

      .cls-19 {
        fill: url(#Gradiente_sem_nome_21-7);
      }

      .cls-20 {
        fill: url(#Gradiente_sem_nome_21-4);
      }

      .cls-21 {
        fill: url(#Gradiente_sem_nome_21-5);
      }

      .cls-22 {
        fill: url(#Gradiente_sem_nome_21-6);
      }

      .cls-23 {
        fill: url(#Gradiente_sem_nome_21);
      }
    </style>
    <clipPath id="clippath">
      <rect class="cls-2" width="90.27" height="68.78"/>
    </clipPath>
    <clipPath id="clippath-1">
      <path class="cls-2" d="M42.31,31.72s-.01.04-.02.07c0-.03.02-.05.03-.08,0,0,0,0,0,.01M42.39,31.53s-.01.03-.02.04c0,0,0,.01,0,.02.01-.02.02-.05.03-.07,0,0,0,.01,0,.02"/>
    </clipPath>
    <linearGradient id="Gradiente_sem_nome_21" data-name="Gradiente sem nome 21" x1="207.53" y1="-2809.98" x2="207.7" y2="-2809.98" gradientTransform="translate(-90.53 -1766.78) scale(.64 -.64)" gradientUnits="userSpaceOnUse">
      <stop offset="0" stop-color="#5cb241"/>
      <stop offset=".66" stop-color="#099dcf"/>
      <stop offset="1" stop-color="#0161a0"/>
    </linearGradient>
    <clipPath id="clippath-2">
      <path class="cls-2" d="M65.77,32.38c0-.24.23-.43.52-.43s.52.19.52.43-.23.43-.52.43-.52-.19-.52-.43M24.74,18.05c-.4.86-.02,1.88.84,2.28.86.4,1.88.02,2.28-.84,4.62-10.04,16.55-14.46,26.6-9.83,4.72,2.17,8.37,6.03,10.27,10.86.03.07.06.13.09.19.21.67.82,1.17,1.57,1.2,7.83.34,13.92,6.97,13.58,14.8-.16,3.76-1.77,7.24-4.52,9.8-2.75,2.56-6.34,3.9-10.1,3.79-.16,0-.31.01-.46.05H23.26s0,.01,0,.01c-.15-.03-.3-.05-.46-.04-3.18.16-6.23-.93-8.6-3.07-2.36-2.14-3.75-5.07-3.9-8.25-.16-3.18.93-6.23,3.07-8.6,2.14-2.36,5.07-3.75,8.25-3.9,4.71-.23,9.12,2.34,11.24,6.54.43.85,1.46,1.19,2.31.76.02-.01.04-.02.07-.04.02,0,.03-.02.04-.02.24-.14.44-.34.58-.57,0,0,0,0,0,0,.06-.1.11-.22.14-.34l.11-.39,1.09-4.02,1.34,16.48c.07.9.83,1.58,1.71,1.58.05,0,.09,0,.14,0,.01,0,.03,0,.04,0,.7-.04,1.33-.52,1.54-1.24l3.26-11.21h5.66c.14.04.29.06.44.06.76,0,1.45-.5,1.66-1.27l.87-3.22,1.24,15.29s0,.05,0,.08c0,0,0,0,0,0,.01.73.5,1.4,1.24,1.62.16.05.32.07.48.07.75,0,1.43-.49,1.65-1.24l3.26-11.21h2.77c.46.43,1.09.69,1.78.69,1.42,0,2.58-1.12,2.58-2.49s-1.16-2.49-2.58-2.49c-.78,0-1.47.33-1.95.86h-3.9c-.74,0-1.43.49-1.65,1.24l-1.01,3.47-1.27-15.64c-.06-.72-.56-1.3-1.21-1.5-.05-.02-.11-.04-.17-.06-.92-.25-1.86.29-2.11,1.21l-3.01,11.11h-6.09s-.08,0-.13,0c0,0-.01,0-.02,0-.04,0-.08,0-.12.01,0,0-.01,0-.02,0-.04,0-.09.02-.13.03-.04.01-.09.02-.13.04-.03.01-.07.02-.1.03-.05.02-.09.04-.14.06-.04.02-.09.05-.13.08-.04.03-.08.06-.13.09-.04.03-.07.06-.11.09,0,0-.02.02-.03.02,0,0-.01,0-.02.01-.03.03-.05.05-.08.08-.03.03-.06.07-.09.11-.01.01-.02.03-.03.04-.02.02-.03.04-.05.07,0,.01-.02.03-.03.04,0,.01-.01.02-.02.03,0,0-.01.02-.02.03-.01.02-.03.05-.04.07-.01.02-.02.05-.03.07,0,.01-.01.02-.02.03,0,0,0,.01,0,.02-.01.03-.02.05-.03.08,0,.03-.02.05-.03.08,0,0,0,.02,0,.02,0,.01,0,.03-.01.04l-.02.07-1.03,3.55-1.27-15.64c-.08-.95-.91-1.65-1.85-1.57-.54.04-1,.34-1.28.75-.15.17-.26.37-.32.59l-2.44,9c-3.04-3.68-7.7-5.8-12.6-5.56-4.1.2-7.88,1.99-10.63,5.03-2.75,3.04-4.16,6.97-3.96,11.07.2,4.1,1.99,7.88,5.03,10.63,2.84,2.57,6.45,3.97,10.26,3.98h0c.09.02.19.02.29.02h42.74c.13-.01.26-.03.38-.06.08,0,.16,0,.24,0,4.47,0,8.71-1.66,12-4.72,3.42-3.18,5.42-7.5,5.62-12.17.4-9.35-6.59-17.33-15.77-18.29-2.3-5.34-6.45-9.59-11.75-12.03-3.17-1.46-6.5-2.15-9.78-2.15-8.9,0-17.42,5.07-21.38,13.67"/>
    </clipPath>
    <linearGradient id="Gradiente_sem_nome_21-2" data-name="Gradiente sem nome 21" x1="-932.74" y1="-948.34" x2="-932.57" y2="-948.34" gradientTransform="translate(415464.83 -422375.57) scale(445.42 -445.42)" xlink:href="#Gradiente_sem_nome_21"/>
    <clipPath id="clippath-3">
      <path class="cls-2" d="M36,32.82c-.03.12-.08.23-.14.34.14-.22.22-.47.25-.73l-.11.39Z"/>
    </clipPath>
    <linearGradient id="Gradiente_sem_nome_21-3" data-name="Gradiente sem nome 21" x1="-401.85" y1="-1776.18" x2="-401.68" y2="-1776.18" gradientTransform="translate(610.51 -2507.13) scale(1.43 -1.43)" xlink:href="#Gradiente_sem_nome_21"/>
    <clipPath id="clippath-4">
      <path class="cls-2" d="M35.28,33.74c.24-.13.44-.32.58-.57-.14.23-.34.42-.58.57"/>
    </clipPath>
    <linearGradient id="Gradiente_sem_nome_21-4" data-name="Gradiente sem nome 21" x1="-706.45" y1="-1299.22" x2="-706.28" y2="-1299.22" gradientTransform="translate(2401.92 -4318.97) scale(3.35 -3.35)" xlink:href="#Gradiente_sem_nome_21"/>
    <clipPath id="clippath-5">
      <path class="cls-2" d="M42.31,31.72s-.01.04-.02.07c0-.03.02-.05.03-.08,0,0,0,0,0,.01"/>
    </clipPath>
    <linearGradient id="Gradiente_sem_nome_21-5" data-name="Gradiente sem nome 21" x1="3938.36" y1="-8895.94" x2="3938.53" y2="-8895.94" gradientTransform="translate(-548.56 -1302.86) scale(.15 -.15)" xlink:href="#Gradiente_sem_nome_21"/>
    <clipPath id="clippath-6">
      <path class="cls-2" d="M42.39,31.53s-.01.03-.02.04c0,.02-.01.03-.02.05,0-.01.01-.02.02-.03.01-.02.02-.05.03-.07,0,0,0,.01,0,.02"/>
    </clipPath>
    <linearGradient id="Gradiente_sem_nome_21-6" data-name="Gradiente sem nome 21" x1="1675.49" y1="-5209.06" x2="1675.66" y2="-5209.06" gradientTransform="translate(-426.73 -1426.81) scale(.28 -.28)" xlink:href="#Gradiente_sem_nome_21"/>
    <clipPath id="clippath-7">
      <path class="cls-2" d="M7.97,57.67c-.65.69-.97,1.66-.97,2.91,0,1.18.32,2.11.96,2.79.64.68,1.46,1.02,2.46,1.02.81,0,1.47-.2,1.99-.6.52-.4.9-1.01,1.12-1.83l-1.47-.47c-.13.55-.33.95-.62,1.21-.29.26-.64.38-1.04.38-.55,0-.99-.2-1.33-.6-.34-.4-.51-1.08-.51-2.03,0-.89.17-1.54.52-1.94.35-.4.8-.6,1.35-.6.4,0,.75.11,1.03.34.28.23.47.53.56.92l1.5-.36c-.17-.6-.43-1.06-.77-1.38-.57-.54-1.32-.81-2.24-.81-1.05,0-1.9.35-2.55,1.04"/>
    </clipPath>
    <linearGradient id="Gradiente_sem_nome_21-7" data-name="Gradiente sem nome 21" x1="-932.82" y1="-947.88" x2="-932.65" y2="-947.88" gradientTransform="translate(436742.39 -443731.11) scale(468.19 -468.19)" xlink:href="#Gradiente_sem_nome_21"/>
    <clipPath id="clippath-8">
      <rect class="cls-2" x="14.83" y="56.76" width="1.44" height="7.51"/>
    </clipPath>
    <linearGradient id="Gradiente_sem_nome_8" data-name="Gradiente sem nome 8" x1="-932.82" y1="-947.88" x2="-932.65" y2="-947.88" gradientTransform="translate(436742.39 -443731.11) scale(468.19 -468.19)" gradientUnits="userSpaceOnUse">
      <stop offset="0" stop-color="#5cb241"/>
      <stop offset=".66" stop-color="#099dcf"/>
      <stop offset="1" stop-color="#099dcf"/>
    </linearGradient>
    <clipPath id="clippath-9">
      <path class="cls-2" d="M19.27,62.79c-.26-.29-.38-.7-.38-1.24s.13-.95.38-1.24c.26-.29.57-.43.95-.43s.69.14.94.43c.25.29.38.7.38,1.23s-.13.96-.38,1.25c-.25.29-.57.43-.94.43s-.69-.14-.95-.43M18.76,59.06c-.43.24-.77.58-1,1.02-.24.45-.35.91-.35,1.39,0,.62.12,1.15.35,1.59.24.44.58.77,1.03.99.45.23.93.34,1.43.34.81,0,1.47-.27,2.01-.81.53-.54.8-1.22.8-2.05s-.26-1.49-.79-2.03c-.53-.53-1.2-.8-2.02-.8-.53,0-1.01.12-1.45.35"/>
    </clipPath>
    <linearGradient id="Gradiente_sem_nome_21-8" data-name="Gradiente sem nome 21" x1="-932.82" y1="-947.87" x2="-932.65" y2="-947.87" gradientTransform="translate(436742.39 -443725.1) scale(468.19 -468.19)" xlink:href="#Gradiente_sem_nome_21"/>
    <clipPath id="clippath-10">
      <path class="cls-2" d="M27.63,58.83v2.29c0,.78-.04,1.27-.11,1.47-.07.2-.2.37-.4.5-.19.13-.41.2-.66.2-.22,0-.39-.05-.53-.15-.14-.1-.24-.24-.29-.41-.05-.17-.08-.64-.08-1.41v-2.5h-1.44v3.44c0,.51.06.91.19,1.2.13.29.34.52.63.68.29.16.62.24.98.24s.7-.08,1.02-.25c.32-.17.58-.4.78-.69v.81h1.34v-5.44h-1.44Z"/>
    </clipPath>
    <linearGradient id="Gradiente_sem_nome_21-9" data-name="Gradiente sem nome 21" x1="-932.82" y1="-947.87" x2="-932.65" y2="-947.87" gradientTransform="translate(436742.39 -443724.74) scale(468.19 -468.19)" xlink:href="#Gradiente_sem_nome_21"/>
    <clipPath id="clippath-11">
      <path class="cls-2" d="M31.94,62.7c-.16-.26-.24-.68-.24-1.26,0-.54.12-.94.35-1.22.23-.27.52-.41.86-.41s.64.14.87.41c.23.27.34.72.34,1.35,0,.56-.12.98-.35,1.26-.23.28-.51.42-.85.42-.42,0-.74-.19-.97-.56M34.1,56.76v2.7c-.44-.51-.97-.76-1.58-.76-.66,0-1.21.24-1.64.72-.43.48-.65,1.18-.65,2.1s.22,1.6.67,2.11c.45.5.98.76,1.61.76.31,0,.61-.08.91-.23.3-.15.56-.38.79-.69v.8h1.34v-7.51h-1.44Z"/>
    </clipPath>
    <linearGradient id="Gradiente_sem_nome_21-10" data-name="Gradiente sem nome 21" x1="-932.82" y1="-947.88" x2="-932.65" y2="-947.88" gradientTransform="translate(436742.39 -443730.76) scale(468.19 -468.19)" xlink:href="#Gradiente_sem_nome_21"/>
    <clipPath id="clippath-12">
      <polygon class="cls-2" points="41.46 56.76 41.46 59.72 38.49 59.72 38.49 56.76 36.98 56.76 36.98 64.27 38.49 64.27 38.49 60.99 41.46 60.99 41.46 64.27 42.98 64.27 42.98 56.76 41.46 56.76"/>
    </clipPath>
    <linearGradient id="Gradiente_sem_nome_21-11" data-name="Gradiente sem nome 21" x1="-932.82" y1="-947.88" x2="-932.65" y2="-947.88" gradientTransform="translate(436742.39 -443731.11) scale(468.19 -468.19)" xlink:href="#Gradiente_sem_nome_21"/>
    <clipPath id="clippath-13">
      <path class="cls-2" d="M45.92,60.15c.2-.23.46-.34.78-.34.29,0,.54.11.75.33.2.22.31.53.32.95h-2.15c0-.39.1-.7.3-.93M44.82,59.48c-.47.51-.71,1.22-.71,2.12,0,.75.18,1.38.54,1.87.45.62,1.15.93,2.1.93.6,0,1.1-.14,1.49-.41.4-.27.69-.68.87-1.2l-1.43-.24c-.08.27-.19.47-.35.59-.15.12-.34.18-.57.18-.33,0-.61-.12-.83-.36-.22-.24-.34-.57-.35-1h3.61c.02-1.1-.2-1.92-.67-2.46-.47-.53-1.11-.8-1.92-.8-.72,0-1.32.26-1.79.77"/>
    </clipPath>
    <linearGradient id="Gradiente_sem_nome_21-12" data-name="Gradiente sem nome 21" x1="-932.82" y1="-947.87" x2="-932.65" y2="-947.87" gradientTransform="translate(436742.39 -443725.1) scale(468.19 -468.19)" xlink:href="#Gradiente_sem_nome_21"/>
    <clipPath id="clippath-14">
      <path class="cls-2" d="M51.66,63.16c-.15-.15-.23-.32-.23-.52s.09-.37.28-.51c.12-.08.38-.17.78-.25.4-.09.69-.16.88-.22v.29c0,.34-.02.58-.06.7-.05.19-.17.35-.34.48-.24.17-.48.26-.74.26-.23,0-.42-.07-.57-.22M50.9,59.09c-.36.25-.61.64-.76,1.17l1.31.24c.09-.25.2-.43.35-.53.14-.1.34-.15.6-.15.38,0,.64.06.77.18.14.12.2.31.2.59v.14c-.26.11-.73.23-1.4.35-.5.1-.88.21-1.14.34-.26.13-.47.31-.62.55-.15.24-.22.51-.22.82,0,.46.16.85.48,1.15.32.3.76.46,1.32.46.32,0,.62-.06.9-.18.28-.12.54-.3.79-.54.01.03.03.08.05.17.05.19.1.33.14.43h1.42c-.13-.26-.21-.5-.26-.73-.05-.23-.07-.58-.07-1.06l.02-1.68c0-.63-.06-1.05-.19-1.29-.13-.23-.35-.43-.66-.58-.31-.15-.79-.23-1.43-.23-.71,0-1.24.13-1.6.38"/>
    </clipPath>
    <linearGradient id="Gradiente_sem_nome_21-13" data-name="Gradiente sem nome 21" x1="-932.82" y1="-947.87" x2="-932.65" y2="-947.87" gradientTransform="translate(436742.39 -443725.1) scale(468.19 -468.19)" xlink:href="#Gradiente_sem_nome_21"/>
    <clipPath id="clippath-15">
      <rect class="cls-2" x="56.2" y="56.76" width="1.44" height="7.51"/>
    </clipPath>
    <linearGradient id="Gradiente_sem_nome_21-14" data-name="Gradiente sem nome 21" x1="-932.82" y1="-947.88" x2="-932.65" y2="-947.88" gradientTransform="translate(436742.39 -443731.11) scale(468.19 -468.19)" xlink:href="#Gradiente_sem_nome_21"/>
    <clipPath id="clippath-16">
      <path class="cls-2" d="M59.18,57.75v1.08h-.66v1.15h.66v2.37c0,.51.02.85.05,1.01.04.24.11.42.2.56.1.14.25.25.46.34.21.09.44.13.7.13.42,0,.8-.07,1.14-.22l-.12-1.12c-.25.09-.45.14-.58.14-.1,0-.18-.02-.24-.07-.07-.05-.11-.11-.13-.18-.02-.07-.03-.33-.03-.78v-2.19h.98v-1.15h-.98v-1.92l-1.44.84Z"/>
    </clipPath>
    <linearGradient id="Gradiente_sem_nome_21-15" data-name="Gradiente sem nome 21" x1="-932.82" y1="-947.88" x2="-932.65" y2="-947.88" gradientTransform="translate(436742.39 -443730.32) scale(468.19 -468.19)" xlink:href="#Gradiente_sem_nome_21"/>
    <clipPath id="clippath-17">
      <path class="cls-2" d="M62.61,56.76v7.51h1.44v-2.72c0-.46.04-.8.13-1.04.09-.23.22-.41.41-.52.19-.12.4-.17.64-.17.21,0,.38.05.52.14.14.09.23.21.29.37.05.15.08.52.08,1.09v2.87h1.44v-3.19c0-.49-.02-.85-.07-1.08-.05-.23-.14-.44-.28-.63-.13-.19-.34-.35-.6-.47-.27-.12-.57-.18-.9-.18-.65,0-1.2.27-1.66.81v-2.76h-1.44Z"/>
    </clipPath>
    <linearGradient id="Gradiente_sem_nome_21-16" data-name="Gradiente sem nome 21" x1="-932.82" y1="-947.88" x2="-932.65" y2="-947.88" gradientTransform="translate(436742.39 -443731.11) scale(468.19 -468.19)" xlink:href="#Gradiente_sem_nome_21"/>
    <clipPath id="clippath-18">
      <rect class="cls-2" x="69.02" y="62.83" width="1.44" height="1.44"/>
    </clipPath>
    <linearGradient id="Gradiente_sem_nome_21-17" data-name="Gradiente sem nome 21" x1="-932.82" y1="-947.85" x2="-932.65" y2="-947.85" gradientTransform="translate(436742.39 -443713.47) scale(468.19 -468.19)" xlink:href="#Gradiente_sem_nome_21"/>
    <clipPath id="clippath-19">
      <path class="cls-2" d="M74.89,58.52l1.03,2.79h-2.05l1.01-2.79ZM74.1,56.76l-2.92,7.51h1.61l.62-1.71h3l.66,1.71h1.65l-3.01-7.51h-1.6Z"/>
    </clipPath>
    <linearGradient id="Gradiente_sem_nome_21-18" data-name="Gradiente sem nome 21" x1="-932.82" y1="-947.88" x2="-932.65" y2="-947.88" gradientTransform="translate(436742.39 -443731.11) scale(468.19 -468.19)" xlink:href="#Gradiente_sem_nome_21"/>
    <clipPath id="clippath-20">
      <rect class="cls-2" x="79.47" y="56.76" width="1.52" height="7.51"/>
    </clipPath>
    <linearGradient id="Gradiente_sem_nome_21-19" data-name="Gradiente sem nome 21" x1="-932.82" y1="-947.88" x2="-932.65" y2="-947.88" gradientTransform="translate(436742.39 -443731.11) scale(468.19 -468.19)" xlink:href="#Gradiente_sem_nome_21"/>
    <clipPath id="clippath-21">
      <path class="cls-2" d="M5.9,33.74c.24-.13.44-.32.58-.57-.14.23-.34.42-.58.57"/>
    </clipPath>
    <linearGradient id="Gradiente_sem_nome_21-20" data-name="Gradiente sem nome 21" x1="-664.22" y1="-1299.22" x2="-664.05" y2="-1299.22" gradientTransform="translate(2231.06 -4318.97) scale(3.35 -3.35)" xlink:href="#Gradiente_sem_nome_21"/>
  </defs>
  <g id="txt">
    <g class="cls-1">
      <g class="cls-24">
        <rect class="cls-23" x="42.29" y="31.51" width=".11" height=".28"/>
      </g>
      <g class="cls-27">
        <rect class="cls-16" x="6.66" y="4.38" width="77.15" height="49.42"/>
      </g>
      <g class="cls-26">
        <rect class="cls-15" x="35.86" y="32.43" width=".25" height=".73"/>
      </g>
      <g class="cls-25">
        <rect class="cls-20" x="35.28" y="33.17" width=".58" height=".57"/>
      </g>
      <g class="cls-31">
        <rect class="cls-21" x="42.29" y="31.71" width=".03" height=".08"/>
      </g>
      <g class="cls-30">
        <rect class="cls-22" x="42.36" y="31.51" width=".05" height=".1"/>
      </g>
      <g class="cls-28">
        <rect class="cls-19" x="7" y="56.64" width="6.54" height="7.76"/>
      </g>
      <g class="cls-29">
        <rect class="cls-14" x="14.83" y="56.76" width="1.44" height="7.51"/>
      </g>
      <g class="cls-32">
        <rect class="cls-18" x="17.41" y="58.71" width="5.61" height="5.68"/>
      </g>
      <g class="cls-38">
        <rect class="cls-17" x="24.12" y="58.83" width="4.95" height="5.56"/>
      </g>
      <g class="cls-43">
        <rect class="cls-9" x="30.23" y="56.76" width="5.31" height="7.63"/>
      </g>
      <g class="cls-37">
        <rect class="cls-11" x="36.98" y="56.76" width="6" height="7.51"/>
      </g>
      <g class="cls-36">
        <rect class="cls-12" x="44.12" y="58.71" width="5.1" height="5.68"/>
      </g>
      <g class="cls-35">
        <rect class="cls-8" x="49.99" y="58.71" width="5.11" height="5.68"/>
      </g>
      <g class="cls-39">
        <rect class="cls-3" x="56.2" y="56.76" width="1.44" height="7.51"/>
      </g>
      <g class="cls-41">
        <rect class="cls-10" x="58.52" y="56.91" width="3.21" height="7.48"/>
      </g>
      <g class="cls-40">
        <rect class="cls-7" x="62.61" y="56.76" width="4.95" height="7.51"/>
      </g>
      <g class="cls-44">
        <rect class="cls-5" x="69.02" y="62.83" width="1.44" height="1.44"/>
      </g>
      <g class="cls-42">
        <rect class="cls-6" x="71.18" y="56.76" width="7.53" height="7.51"/>
      </g>
      <g class="cls-33">
        <rect class="cls-4" x="79.47" y="56.76" width="1.52" height="7.51"/>
      </g>
      <g class="cls-34">
        <rect class="cls-13" x="5.9" y="33.17" width=".58" height=".57"/>
      </g>
    </g>
  </g>
</svg>