<?xml version="1.0" encoding="UTF-8"?>
<svg id="Camada_2" data-name="Camada 2" xmlns="http://www.w3.org/2000/svg" viewBox="0 0 103.6 44.32">
  <defs>
    <style>
      .cls-1 {
        fill: #1f3562;
        stroke-width: 0px;
      }
    </style>
  </defs>
  <g id="vetor">
    <g>
      <path class="cls-1" d="M24.73,26.59s0-.02,0-.03c0-.02,0-.04-.02-.05,0,0,0-.02-.01-.03,0-.02-.02-.03-.03-.05,0,0,0-.01-.01-.02-.02-.02-.03-.04-.05-.06,0,0,0,0,0,0-.02-.01-.03-.03-.05-.04l-6.7-4.87c-.08-.06-.17-.09-.27-.09h-4.87c-.09,0-.18.03-.25.08v-3.81h0s0-.06,0-.08c0,0,0-.02,0-.03,0-.02,0-.04-.02-.05,0,0,0-.02-.01-.03,0-.02-.02-.03-.03-.05,0,0,0-.01-.01-.02-.02-.02-.03-.04-.05-.06,0,0,0,0,0,0-.02-.02-.03-.03-.05-.04l-3.16-2.3v-4.61c.01-2.32,1.35-4.41,3.45-5.4,1.81.95,3.05,2.85,3.05,5.03v7.02c0,.14.07.28.19.37l3.35,2.43c.08.06.17.09.27.09h4.84c.25,0,.45-.2.45-.45v-9.5C24.72,4.46,20.26,0,14.78,0h-4.75s-.06,0-.09,0C4.46,0,0,4.46,0,9.94v6.94c0,.14.07.28.19.37l6.7,4.87h0c.07.05.17.09.27.09h4.87c.09,0,.18-.03.25-.08v3.81c0,.14.07.28.19.37l3.16,2.3-.02,3.88c0,2.65-2.1,4.81-4.72,4.92-1.07-.9-1.76-2.26-1.76-3.77v-7.1c0-.14-.07-.27-.17-.35,0,0,0,0-.01-.01l-3.35-2.43c-.08-.06-.17-.09-.27-.09H.45c-.2,0-.37.13-.43.31-.02.07-.03.14-.02.22v7.03c0,3.36,1.61,6.56,4.32,8.58l3.25,2.36c1.8,1.37,4.04,2.19,6.47,2.19,5.9,0,10.7-4.8,10.7-10.7v-6.95h0s0-.06,0-.08M17.44,22.26l5.45,3.96h-3.33l-5.45-3.96h3.33ZM5.2,15.64h3.33l2.1,1.53h-3.33l-2.1-1.53ZM8.23,10.35v4.39h-3.98v-4.75c0-3.13,2.55-5.68,5.68-5.68.53,0,1.05.08,1.54.21-2,1.24-3.24,3.43-3.24,5.83M14.78.91c4.98,0,9.03,4.05,9.03,9.03v9.04h-3.94v-9.05c0-4-2.38-7.46-5.8-9.03h.7ZM.91,9.94C.91,4.97,4.94.92,9.91.91h0s.13,0,.13,0c4.94.05,8.94,4.08,8.94,9.03v8.61l-2.44-1.78v-6.79c0-3.63-2.96-6.59-6.59-6.59s-6.59,2.96-6.59,6.59v5.2c0,.14.07.28.19.37l3.16,2.3v3.01L.91,16.65v-6.71ZM11.57,21.3h-3.96v-3.23h3.96v3.23ZM16.5,32.48l.02-4.11c0-.15-.07-.28-.19-.37l-3.16-2.3v-3.01l5.79,4.21v6.72c0,2.71-2.21,4.92-4.92,4.92-.7,0-1.37-.15-1.98-.42,2.54-.63,4.44-2.92,4.44-5.66M5.17,24.54l2.1,1.53h-3.33l-2.1-1.53h3.33ZM.91,31.19v-6.21s2.44,1.77,2.44,1.77v6.87c0,1.96.53,3.79,1.45,5.38-2.44-1.85-3.89-4.76-3.89-7.81M23.84,33.63c0,5.4-4.39,9.79-9.79,9.79-2.14,0-4.12-.69-5.73-1.86-.04-.03-.21-.15-.21-.15-2.34-1.79-3.85-4.61-3.85-7.78v-6.65h3.96v6.65c0,3.21,2.61,5.83,5.83,5.83s5.83-2.61,5.83-5.83v-6.5h3.96v6.5Z"/>
      <path class="cls-1" d="M30.16,33.56c-.21-.1-.39-.24-.54-.4l.13-.22s.06-.07.1-.09c.04-.02.08-.03.13-.03.07,0,.13.02.18.06.1.07.22.13.34.19s.23.08.32.08c.2,0,.36-.05.49-.14.12-.1.18-.23.18-.41,0-.12-.05-.23-.16-.32-.11-.09-.28-.19-.51-.28-.35-.13-.61-.28-.78-.45-.17-.17-.25-.37-.25-.6,0-.19.05-.36.14-.52.09-.15.22-.27.39-.35.17-.08.36-.13.58-.13.17,0,.35.03.53.1.18.07.33.17.44.29l-.1.18c-.03.05-.07.1-.12.13s-.1.05-.15.05c-.04,0-.09-.01-.13-.03-.08-.05-.16-.09-.24-.11-.09-.02-.16-.04-.23-.04-.16,0-.29.04-.38.12-.1.08-.15.18-.15.31,0,.1.05.19.15.27.1.08.25.16.47.23.37.12.64.27.82.46.18.19.27.42.27.69,0,.22-.05.41-.16.58-.11.17-.26.3-.45.4-.19.09-.41.14-.66.14-.23,0-.44-.05-.65-.15"/>
      <rect class="cls-1" x="32.9" y="30.01" width=".58" height="3.66"/>
      <path class="cls-1" d="M38.47,30.01v3.67h-.58v-2.61s.01-.11.04-.2h0l-1.15,2.19c-.06.11-.14.16-.26.16s-.2-.05-.26-.16l-1.15-2.19h0c.02.08.04.14.04.2v2.61h-.58v-3.67h.43c.1,0,.17.02.22.05.05.03.1.09.15.18l1.1,2.05s.04.11.05.19h0c0-.09.02-.15.05-.19l1.1-2.05c.05-.09.1-.14.15-.18.05-.03.13-.05.22-.05h.43Z"/>
      <path class="cls-1" d="M39.56,30.01h1.43c.23,0,.44.05.63.15.18.1.33.23.43.41.1.18.16.37.16.59s-.05.42-.16.59c-.1.18-.25.31-.43.41-.18.1-.39.15-.63.15h-.85v1.37h-.58v-3.67ZM40.98,31.75c.12,0,.23-.03.33-.08.1-.05.17-.12.23-.21.05-.09.08-.19.08-.3s-.03-.21-.08-.3c-.05-.09-.13-.16-.23-.21-.1-.05-.21-.08-.33-.08h-.85v1.18h.85Z"/>
      <polygon class="cls-1" points="42.82 30.01 43.4 30.01 43.4 33.14 44.95 33.14 44.95 33.67 42.82 33.67 42.82 30.01"/>
      <rect class="cls-1" x="45.73" y="30.01" width=".58" height="3.66"/>
      <polygon class="cls-1" points="47.4 30.01 49.71 30.01 49.71 30.57 47.97 30.57 47.97 31.61 49.42 31.61 49.42 32.17 47.97 32.17 47.97 33.67 47.4 33.67 47.4 30.01"/>
      <rect class="cls-1" x="50.49" y="30.01" width=".58" height="3.66"/>
      <path class="cls-1" d="M52.82,33.47c-.29-.16-.52-.39-.68-.68-.17-.29-.25-.6-.25-.95s.08-.67.25-.95c.17-.29.39-.51.68-.68.29-.17.61-.25.96-.25.25,0,.49.05.74.16.24.11.44.25.6.42l-.14.14s-.08.07-.14.1c-.05.02-.1.03-.16.03-.06,0-.12-.01-.17-.04-.11-.07-.23-.13-.35-.18-.13-.04-.26-.06-.39-.06-.24,0-.46.06-.66.17-.2.11-.36.27-.47.47-.11.2-.17.42-.17.67s.06.47.17.67c.12.2.27.36.47.47.2.11.42.17.66.17.13,0,.26-.02.39-.06.13-.04.25-.1.35-.18.06-.03.12-.05.18-.05.05,0,.1.01.15.03.05.02.09.05.13.09l.14.14c-.16.18-.36.33-.6.43-.24.11-.49.16-.75.16-.35,0-.67-.08-.96-.25"/>
      <path class="cls-1" d="M59.12,33.67h-.39c-.08,0-.14-.02-.2-.06-.06-.04-.1-.09-.13-.16l-.25-.58h-1.76l-.25.58c-.03.07-.07.12-.13.16-.06.04-.13.06-.2.06h-.39l1.6-3.67h.51l1.6,3.67ZM57.91,32.34l-.54-1.24c-.04-.09-.07-.16-.08-.21-.01-.05-.02-.11-.02-.17h-.03c0,.06,0,.12-.02.17-.01.05-.04.12-.07.21l-.54,1.24h1.29Z"/>
      <path class="cls-1" d="M62.73,30.01v3.67h-.44s-.07-.01-.1-.03c-.04-.02-.07-.06-.1-.1l-1.89-2.78h-.01c.05.12.07.25.07.38v2.52h-.58v-3.67h.45c.08,0,.14.01.19.04.05.03.1.07.15.14l1.76,2.59h.01c-.06-.13-.09-.27-.09-.4v-2.36h.58Z"/>
      <path class="cls-1" d="M63.82,30.01h1.42c.34,0,.65.08.93.24.28.16.5.38.67.66.16.28.24.59.24.93s-.08.64-.24.93c-.16.28-.39.5-.67.66-.28.16-.59.24-.93.24h-1.42v-3.67ZM65.88,32.96c.19-.11.35-.27.46-.47.11-.2.17-.42.17-.66s-.06-.46-.17-.66c-.11-.2-.26-.36-.46-.47-.19-.11-.41-.17-.64-.17h-.85v2.6h.85c.23,0,.44-.06.64-.17"/>
      <path class="cls-1" d="M67.9,30.89c.17-.29.39-.51.68-.68.29-.17.61-.25.96-.25s.67.08.96.25c.29.17.52.39.68.68.17.29.25.6.25.95s-.08.66-.25.95c-.17.29-.4.51-.68.68-.29.17-.61.25-.96.25s-.67-.08-.96-.25c-.29-.17-.52-.39-.68-.68-.17-.29-.25-.6-.25-.95s.08-.67.25-.95M68.4,32.5c.12.2.27.36.47.47.2.12.42.17.66.17s.46-.06.66-.17c.2-.12.36-.27.47-.47.12-.2.17-.42.17-.66s-.06-.46-.17-.66c-.12-.2-.27-.36-.47-.47-.2-.12-.42-.17-.66-.17s-.46.06-.66.17c-.2.12-.36.27-.47.47-.12.2-.17.42-.17.66s.06.46.17.66"/>
      <polygon class="cls-1" points="73.94 33.67 73.94 30.01 76.25 30.01 76.25 30.57 74.52 30.57 74.52 31.52 75.93 31.52 75.93 32.08 74.52 32.08 74.52 33.1 76.25 33.1 76.25 33.67 73.94 33.67"/>
      <path class="cls-1" d="M81.02,30.01v3.67h-.58v-2.61s.01-.11.04-.2h0l-1.15,2.19c-.06.11-.14.16-.26.16s-.2-.05-.26-.16l-1.15-2.19h0c.02.08.04.14.04.2v2.61h-.58v-3.67h.43c.1,0,.17.02.22.05.05.03.1.09.15.18l1.1,2.05s.04.11.05.19h0c0-.09.02-.15.05-.19l1.1-2.05c.05-.09.1-.14.15-.18.05-.03.13-.05.22-.05h.43Z"/>
      <polygon class="cls-1" points="83.79 33.67 83.79 30.01 86.1 30.01 86.1 30.57 84.37 30.57 84.37 31.52 85.78 31.52 85.78 32.08 84.37 32.08 84.37 33.1 86.1 33.1 86.1 33.67 83.79 33.67"/>
      <path class="cls-1" d="M87.18,33.56c-.21-.1-.39-.24-.54-.4l.13-.22s.06-.07.1-.09c.04-.02.08-.03.13-.03.07,0,.13.02.18.06.1.07.22.13.34.19.13.05.23.08.32.08.2,0,.36-.05.49-.14.12-.1.18-.23.18-.41,0-.12-.05-.23-.16-.32-.11-.09-.28-.19-.51-.28-.35-.13-.61-.28-.78-.45-.17-.17-.25-.37-.25-.6,0-.19.05-.36.14-.52.09-.15.22-.27.39-.35.17-.08.36-.13.58-.13.17,0,.35.03.53.1.18.07.33.17.44.29l-.1.18c-.03.05-.07.1-.12.13s-.1.05-.15.05c-.04,0-.09-.01-.13-.03-.08-.05-.16-.09-.24-.11-.09-.02-.16-.04-.23-.04-.16,0-.29.04-.38.12-.1.08-.15.18-.15.31,0,.1.05.19.15.27.1.08.25.16.47.23.37.12.64.27.82.46s.27.42.27.69c0,.22-.05.41-.16.58-.11.17-.26.3-.45.4-.19.09-.41.14-.66.14-.23,0-.44-.05-.65-.15"/>
      <path class="cls-1" d="M90.58,33.47c-.29-.16-.52-.39-.68-.68-.17-.29-.25-.6-.25-.95s.08-.67.25-.95c.17-.29.39-.51.68-.68.29-.17.61-.25.96-.25.25,0,.49.05.74.16.24.11.44.25.6.42l-.14.14s-.08.07-.14.1c-.05.02-.1.03-.16.03-.06,0-.12-.01-.17-.04-.11-.07-.23-.13-.35-.18-.13-.04-.26-.06-.39-.06-.24,0-.46.06-.66.17-.2.11-.36.27-.47.47-.12.2-.17.42-.17.67s.06.47.17.67c.12.2.27.36.47.47.2.11.42.17.66.17.13,0,.26-.02.39-.06.13-.04.25-.1.35-.18.06-.03.12-.05.18-.05.05,0,.1.01.15.03.05.02.09.05.13.09l.14.14c-.16.18-.36.33-.6.43-.24.11-.49.16-.75.16-.35,0-.67-.08-.96-.25"/>
      <path class="cls-1" d="M96.88,33.67h-.39c-.08,0-.14-.02-.2-.06-.06-.04-.1-.09-.13-.16l-.25-.58h-1.76l-.25.58c-.03.07-.07.12-.13.16-.06.04-.13.06-.2.06h-.39l1.6-3.67h.51l1.6,3.67ZM95.67,32.34l-.54-1.24c-.04-.09-.07-.16-.08-.21-.01-.05-.02-.11-.02-.17h-.03c0,.06,0,.12-.02.17-.01.05-.04.12-.07.21l-.54,1.24h1.29Z"/>
      <polygon class="cls-1" points="97.44 30.01 98.02 30.01 98.02 33.14 99.58 33.14 99.58 33.67 97.44 33.67 97.44 30.01"/>
      <path class="cls-1" d="M103.6,33.67h-.39c-.08,0-.14-.02-.2-.06-.06-.04-.1-.09-.13-.16l-.25-.58h-1.76l-.25.58c-.03.07-.07.12-.13.16-.06.04-.13.06-.2.06h-.39l1.6-3.67h.51l1.6,3.67ZM102.39,32.34l-.54-1.24c-.04-.09-.07-.16-.08-.21-.01-.05-.02-.11-.02-.17h-.03c0,.06,0,.12-.02.17-.01.05-.04.12-.07.21l-.54,1.24h1.29Z"/>
      <path class="cls-1" d="M29.61,24.23l1.24-1.43c.74.71,1.49,1.24,2.25,1.6.77.36,1.57.53,2.41.53.97,0,1.76-.21,2.37-.64.61-.43.92-.97.92-1.63,0-.59-.21-1.06-.64-1.38-.43-.33-1.13-.58-2.11-.75l-2.26-.37c-1.24-.21-2.16-.6-2.78-1.19-.61-.59-.92-1.36-.92-2.33,0-1.17.46-2.12,1.37-2.83.92-.71,2.12-1.06,3.62-1.06.97,0,1.93.16,2.88.47.95.32,1.81.77,2.57,1.36l-1.12,1.55c-.74-.55-1.47-.97-2.21-1.25-.74-.28-1.48-.42-2.23-.42-.88,0-1.59.19-2.13.56-.54.37-.81.86-.81,1.45,0,.56.19.98.56,1.27.37.29.99.51,1.86.65l2.19.35c1.42.23,2.47.66,3.15,1.27.68.61,1.02,1.44,1.02,2.49,0,.62-.13,1.19-.39,1.7-.26.52-.62.96-1.09,1.32-.47.36-1.04.64-1.71.84-.67.2-1.41.3-2.21.3-1.08,0-2.13-.21-3.14-.64-1.01-.43-1.9-1.03-2.67-1.8"/>
      <path class="cls-1" d="M43.35,24.03v-5.79h-2.09v-1.63h2.09v-2.52l1.92-.46v2.98h2.9v1.63h-2.9v5.34c0,.5.11.86.34,1.06.23.21.6.31,1.11.31.27,0,.51-.02.73-.05.21-.03.44-.09.69-.18v1.63c-.26.09-.56.16-.9.21-.34.05-.66.08-.94.08-.95,0-1.68-.22-2.19-.67-.5-.45-.75-1.09-.75-1.95"/>
      <path class="cls-1" d="M52.72,26.65c-1.07,0-1.94-.28-2.61-.83-.67-.55-1.01-1.28-1.01-2.17s.36-1.66,1.06-2.2c.71-.53,1.68-.8,2.92-.8.48,0,.94.05,1.39.14.45.1.88.23,1.3.4v-1.04c0-.7-.21-1.22-.62-1.57-.41-.35-1.01-.52-1.78-.52-.45,0-.92.07-1.41.2-.49.14-1.04.35-1.65.63l-.72-1.45c.74-.35,1.43-.6,2.09-.76s1.31-.24,1.95-.24c1.28,0,2.27.31,2.97.92.7.61,1.05,1.48,1.05,2.6v6.52h-1.9v-.85c-.44.35-.91.61-1.41.77-.5.17-1.05.25-1.65.25M50.96,23.61c0,.48.2.86.61,1.16.41.3.94.44,1.6.44.52,0,.99-.08,1.43-.23.44-.15.83-.39,1.18-.7v-1.7c-.37-.21-.77-.36-1.18-.45-.41-.1-.86-.14-1.35-.14-.7,0-1.25.15-1.66.44-.41.3-.62.69-.62,1.18"/>
      <path class="cls-1" d="M59.9,26.47v-9.85h1.94v1.26c.3-.48.68-.84,1.14-1.09.46-.25.99-.38,1.57-.38.21,0,.39.01.54.04.15.03.3.06.45.12v1.74c-.18-.06-.37-.12-.56-.16-.19-.04-.39-.06-.58-.06-.57,0-1.07.15-1.52.45-.45.3-.79.75-1.04,1.35v6.58h-1.94Z"/>
      <path class="cls-1" d="M80.47,19.87c0,.97-.17,1.87-.51,2.7-.34.83-.81,1.55-1.4,2.16-.59.61-1.3,1.08-2.12,1.43-.82.35-1.7.52-2.64.52s-1.9-.18-2.77-.54c-.86-.36-1.61-.85-2.25-1.48-.63-.63-1.13-1.37-1.5-2.23-.37-.86-.55-1.77-.55-2.74s.18-1.88.55-2.74c.37-.86.86-1.6,1.49-2.23.63-.63,1.37-1.12,2.24-1.48.86-.36,1.79-.54,2.77-.54,1.07,0,2.08.21,3.04.62.95.41,1.76.99,2.42,1.72l-1.39,1.35c-.5-.58-1.11-1.03-1.83-1.35-.72-.32-1.46-.47-2.24-.47-.7,0-1.35.13-1.96.39-.61.26-1.14.62-1.59,1.07-.44.46-.79,1-1.05,1.63-.25.63-.38,1.3-.38,2.02s.13,1.4.39,2.02c.26.63.61,1.17,1.05,1.63.44.46.97.82,1.59,1.08.61.26,1.27.4,1.98.4,1.2,0,2.22-.36,3.07-1.09.85-.73,1.33-1.65,1.46-2.78h-4.51v-1.78h6.64v.7Z"/>
      <path class="cls-1" d="M82.37,26.47v-9.85h1.94v1.26c.3-.48.68-.84,1.14-1.09.46-.25.99-.38,1.57-.38.21,0,.39.01.54.04.15.03.3.06.45.12v1.74c-.18-.06-.37-.12-.56-.16-.19-.04-.39-.06-.58-.06-.57,0-1.07.15-1.52.45-.44.3-.79.75-1.04,1.35v6.58h-1.94Z"/>
      <path class="cls-1" d="M90.52,15.03c-.32,0-.6-.12-.83-.36-.23-.24-.35-.52-.35-.84s.12-.6.35-.84c.23-.24.51-.36.83-.36s.6.12.84.36c.24.24.36.52.36.84s-.12.6-.36.84c-.24.24-.52.36-.84.36M91.49,26.47h-1.94v-9.85h1.94v9.85Z"/>
      <path class="cls-1" d="M101.32,26.47v-.93c-.41.35-.88.62-1.39.8-.52.19-1.06.28-1.63.28-.7,0-1.35-.13-1.95-.4-.61-.26-1.13-.62-1.58-1.07-.45-.45-.8-.99-1.05-1.62-.26-.63-.39-1.29-.39-2s.13-1.37.39-1.99c.26-.62.61-1.15,1.05-1.61.45-.45.98-.81,1.6-1.07.62-.26,1.28-.4,1.97-.4.54,0,1.06.08,1.57.25.5.17.97.41,1.39.72v-4.51l1.94-.43v13.97h-1.92ZM95.22,21.52c0,.97.32,1.78.97,2.44.64.66,1.44.99,2.38.99.55,0,1.07-.1,1.54-.31.47-.21.87-.5,1.19-.87v-4.47c-.32-.36-.72-.65-1.2-.85-.48-.21-.99-.31-1.53-.31-.94,0-1.74.32-2.38.97-.65.65-.97,1.45-.97,2.42"/>
    </g>
  </g>
</svg>