<?xml version="1.0" encoding="UTF-8"?>
<svg id="Camada_2" data-name="Camada 2" xmlns="http://www.w3.org/2000/svg" viewBox="0 0 115.43 19.97">
  <defs>
    <style>
      .cls-1 {
        fill: #2e72b8;
      }

      .cls-1, .cls-2 {
        stroke-width: 0px;
      }

      .cls-2 {
        fill: #455a64;
      }
    </style>
  </defs>
  <g id="vetor">
    <g>
      <path class="cls-2" d="M18.46,15.63V0h3v6.35h7.23V0h3v15.63h-3v-6.47h-7.23v6.47h-3Z"/>
      <path class="cls-2" d="M33.12,9.79c0-3.35,2.45-5.86,5.91-5.86s5.93,2.52,5.93,5.86-2.45,5.84-5.93,5.84-5.91-2.52-5.91-5.84ZM39.03,12.81c1.85,0,3-1.41,3-3.05s-1.15-3.05-3-3.05-2.98,1.41-2.98,3.05,1.15,3.05,2.98,3.05Z"/>
      <path class="cls-2" d="M46,13.02h2.59c.92,0,1.27-.37,1.27-.81,0-.53-.44-.76-1.32-1.2-1.09-.55-2.75-1.32-2.75-3.28,0-1.75,1.29-3.28,3.83-3.28h2.72v2.59h-2.38c-.76,0-1.11.3-1.11.69,0,.53.6.79,1.34,1.13,1.22.55,2.72,1.36,2.72,3.39s-1.73,3.37-4.34,3.37h-2.24l-.35-2.61Z"/>
      <path class="cls-2" d="M54.2,9.72c0-3.51,2.42-5.8,5.73-5.8s5.8,2.31,5.8,5.68-2.45,5.75-6,5.75h-1.52v-2.7s1.29-.05,1.29-.05c2.08,0,3.3-1.34,3.3-3s-1.2-2.89-2.84-2.89-2.86,1.11-2.86,3.12v10.14h-2.89v-10.25Z"/>
      <rect class="cls-2" x="67.2" y="4.48" width="2.89" height="11.15"/>
      <path class="cls-2" d="M71.93,11.38V.03h2.89v4.45h3.16v2.75h-3.16v3.76c0,1.25.58,1.89,1.85,1.89h1.36v2.75h-1.82c-2.84,0-4.27-1.69-4.27-4.25Z"/>
      <path class="cls-2" d="M78.76,9.88c0-3.37,2.52-5.68,5.8-5.68s5.73,2.29,5.73,5.8v5.63h-2.89v-5.52c0-2.01-1.27-3.12-2.86-3.12s-2.84,1.22-2.84,2.89,1.22,3,3.3,3h1.13v2.75h-1.36c-3.56,0-6-2.47-6-5.75Z"/>
      <path class="cls-2" d="M96.52,9.88c0-3.37,2.52-5.68,5.8-5.68s5.73,2.29,5.73,5.8v5.63h-2.89v-5.52c0-2.01-1.27-3.12-2.86-3.12s-2.84,1.22-2.84,2.89,1.22,3,3.3,3h1.13v2.75h-1.36c-3.56,0-6-2.47-6-5.75Z"/>
      <path class="cls-2" d="M92.11,0h2.89v15.63h-2.89V0Z"/>
      <path class="cls-2" d="M113.86,4.48h1.57v2.75h-1.25c-.99,0-1.59.55-1.59,1.66v6.74h-2.89v-6.95c0-2.52,1.43-4.2,4.16-4.2Z"/>
      <path class="cls-2" d="M11.43,4.52h3v11.11h-3V4.52Z"/>
      <path class="cls-1" d="M9.86,0C10.73,0,11.43.71,11.43,1.57v1.24h0s2.11,0,2.11,0c.55,0,.99-.44.99-.99V0h-4.68Z"/>
      <path class="cls-1" d="M67.16,0v2.82h1.76c.62,0,1.12-.5,1.12-1.12V0h-2.89Z"/>
      <path class="cls-2" d="M4.39,2.82H0V0h9.86c.87,0,1.57.7,1.57,1.57v1.24h-4.07v12.81h-2.98V2.82Z"/>
    </g>
  </g>
</svg>